<svg width="110" height="110" viewBox="0 0 110 110" fill="none" xmlns="http://www.w3.org/2000/svg">
<path d="M25.1912 41.4919V36.0017H30.6814V41.4919H25.1912ZM25.1912 63.3654V57.8751H30.6814V63.3654H25.1912ZM25.1912 85.2388V79.7486H30.6814V85.2388H25.1912Z" fill="white" stroke="white" stroke-width="5.46836"/>
<path d="M52.5295 21.8661V3.20262H78.4157L107.213 37.7574V107.101H3.31426V3.20262H29.1295L47.7724 23.7055L52.5295 28.9373V21.8661ZM52.5295 38.129V37.0721L51.8186 36.29L27.5281 9.56612L26.7145 8.67098H25.5049H11.5168H8.78261V11.4052V98.8989V101.633H11.5168H49.7953H52.5295V98.8989V38.129ZM71.6687 30.5335H68.9346V33.2677V44.2262V46.9604H71.6687H82.6273H85.3615V44.2262V33.2677V30.5335H82.6273H71.6687ZM71.6687 52.4069H68.9346V55.1411V66.0997V68.8339H71.6687H82.6273H85.3615V66.0997V55.1411V52.4069H82.6273H71.6687ZM85.3615 77.0145V74.2803H82.6273H71.6687H68.9346V77.0145V87.9731V90.7073H71.6687H82.6273H85.3615V87.9731V77.0145Z" fill="white" stroke="white" stroke-width="5.46836"/>
</svg>
