<svg width="110" height="108" viewBox="0 0 110 108" fill="none" xmlns="http://www.w3.org/2000/svg">
<path d="M55.0021 107.367V50.0438M55.0021 53.6265V75.1228M55.0021 53.6265C55.0021 46.0249 51.8746 38.7347 46.3075 33.3596C40.7404 27.9845 33.1898 24.9647 25.3168 24.9647H3.05273V46.4611C3.05273 54.0626 6.18029 61.3528 11.7474 66.728C17.3145 72.1031 24.8651 75.1228 32.7381 75.1228H55.0021M55.0021 53.6265H77.2662C85.1392 53.6265 92.6898 50.6068 98.2569 45.2317C103.824 39.8565 106.952 32.5663 106.952 24.9647V3.46844H84.6875C76.8145 3.46844 69.2639 6.48816 63.6968 11.8633C58.1297 17.2384 55.0021 24.5286 55.0021 32.1302V53.6265ZM55.0021 53.6265L84.6875 24.9647M55.0021 75.1228L25.3168 46.4611" stroke="white" stroke-width="6.11169"/>
</svg>
