<svg width="124" height="131" viewBox="0 0 124 131" fill="none" xmlns="http://www.w3.org/2000/svg">
<path d="M58.698 5.30314L76.6752 35.1716L77.2725 36.164L78.4008 36.4253L112.362 44.2915L89.5087 70.6083L88.749 71.4831L88.8492 72.6374L91.8632 107.373L59.7643 93.7694L58.6975 93.3173L57.6306 93.7694L25.5371 107.368L28.551 72.643L28.6512 71.489L27.8918 70.6142L5.04288 44.2917L39.0048 36.4253L40.1336 36.1639L40.7308 35.171L58.698 5.30314ZM110.658 123.267L106.792 127.133L97.1248 117.466L100.994 113.6L110.658 123.267ZM61.0398 19.8069L58.6972 15.9161L56.3549 19.8071L43.6201 40.962L19.5553 46.5407L15.131 47.5664L18.1078 50.9964L34.3004 69.6544L32.1588 94.2616L31.7648 98.789L35.9492 97.0163L58.6974 87.379L81.4455 97.0163L85.629 98.7886L85.236 94.2622L83.0996 69.6547L99.2924 50.9964L102.27 47.5656L97.8443 46.5406L73.7798 40.9672L61.0398 19.8069ZM106.524 84.0257L110.39 80.1565L120.057 89.8233L116.191 93.6892L106.524 84.0257ZM61.1539 117.466L65.0232 113.6L74.6866 123.267L70.8207 127.133L61.1539 117.466Z" fill="white" stroke="white" stroke-width="5.46836"/>
</svg>
