<svg width="122" height="121" viewBox="0 0 122 121" fill="none" xmlns="http://www.w3.org/2000/svg">
<path d="M63.6439 2.73418V13.6709H58.1756V2.73418H63.6439ZM103.443 21.4802L95.7099 29.2164L91.8444 25.3509L99.577 17.6146L103.443 21.4802ZM18.3774 21.4852L22.2475 17.6151L29.9756 25.3504L26.1091 29.2169L18.3774 21.4852ZM60.9098 35.5443C54.3834 35.5443 48.1244 38.1369 43.5095 42.7517C38.8947 47.3666 36.3021 53.6256 36.3021 60.1519C36.3021 66.6783 38.8947 72.9373 43.5095 77.5521C48.1244 82.167 54.3834 84.7595 60.9098 84.7595C67.4361 84.7595 73.6951 82.167 78.31 77.5521C82.9248 72.9373 85.5174 66.6783 85.5174 60.1519C85.5174 53.6256 82.9248 47.3666 78.31 42.7517C73.6951 38.1369 67.4361 35.5443 60.9098 35.5443ZM30.8338 60.1519C30.8338 52.1753 34.0025 44.5254 39.6428 38.885C45.2832 33.2447 52.9331 30.076 60.9098 30.076C68.8864 30.076 76.5363 33.2447 82.1767 38.885C87.817 44.5254 90.9857 52.1753 90.9857 60.1519C90.9857 68.1286 87.817 75.7785 82.1767 81.4189C76.5363 87.0592 68.8864 90.2279 60.9098 90.2279C52.9331 90.2279 45.2832 87.0592 39.6428 81.4189C34.0025 75.7785 30.8338 68.1286 30.8338 60.1519ZM3.49199 57.4178H14.4287V62.8861H3.49199V57.4178ZM107.391 57.4178H118.328V62.8861H107.391V57.4178ZM29.9767 94.9478L22.2478 102.688L18.3763 98.8135L26.1089 91.0772L29.9767 94.9478ZM91.8442 94.9519L95.7106 91.0827L103.443 98.8182L99.5765 102.684L91.8442 94.9519ZM63.6439 106.633V117.57H58.1756V106.633H63.6439Z" fill="white" stroke="white" stroke-width="5.46836"/>
</svg>
