<svg width="1440" height="601" viewBox="0 0 1440 601" fill="none" xmlns="http://www.w3.org/2000/svg">
<g opacity="0.05">
<path d="M365.023 259.13V80.8769C365.023 76.8891 369.463 74.506 372.786 76.7097L496.065 158.448C497.462 159.375 498.302 160.939 498.302 162.615V340.424C498.302 344.407 493.874 346.791 490.55 344.599L367.271 263.304C365.868 262.379 365.023 260.811 365.023 259.13Z" fill="#6269AA" stroke="#6269AA"/>
<path d="M514.043 339.683V163.478C514.043 161.786 514.899 160.208 516.317 159.286L705.028 36.5857C708.354 34.423 712.753 36.81 712.753 40.7775V219.49C712.753 221.199 711.881 222.789 710.439 223.707L521.729 343.9C518.4 346.02 514.043 343.629 514.043 339.683Z" fill="#595D9E" stroke="#595D9E"/>
<path d="M729.113 217.926V41.5678C729.113 37.6065 733.5 35.2183 736.827 37.3685L861.036 117.646C862.461 118.568 863.322 120.149 863.322 121.846V301.239C863.322 305.239 858.858 307.619 855.536 305.391L731.328 222.079C729.944 221.15 729.113 219.593 729.113 217.926Z" fill="#6269AA" stroke="#6269AA"/>
<path d="M1093.21 173.341V-4.91217C1093.21 -8.89995 1097.65 -11.2831 1100.97 -9.07939L1224.25 72.6592C1225.65 73.5855 1226.49 75.1502 1226.49 76.8264V254.635C1226.49 258.617 1222.06 261.002 1218.74 258.81L1095.46 177.515C1094.06 176.59 1093.21 175.022 1093.21 173.341Z" fill="#6269AA" stroke="#6269AA"/>
<path d="M1242.23 253.91V77.7042C1242.23 76.0121 1243.08 74.4348 1244.5 73.5124L1433.21 -49.1878C1436.54 -51.3505 1440.94 -48.9635 1440.94 -44.9959V133.716C1440.94 135.425 1440.06 137.016 1438.62 137.934L1249.91 258.127C1246.58 260.247 1242.23 257.856 1242.23 253.91Z" fill="#595D9E" stroke="#595D9E"/>
<path d="M729.113 427.31V249.057C729.113 245.069 733.553 242.686 736.876 244.889L860.155 326.628C861.552 327.554 862.392 329.119 862.392 330.795V508.604C862.392 512.586 857.964 514.97 854.64 512.778L731.361 431.484C729.958 430.559 729.113 428.99 729.113 427.31Z" fill="#6269AA" stroke="#6269AA"/>
<path d="M878.137 507.871V331.665C878.137 329.973 878.993 328.396 880.411 327.473L1069.12 204.773C1072.45 202.61 1076.85 204.997 1076.85 208.965V387.677C1076.85 389.386 1075.97 390.977 1074.53 391.895L885.823 512.088C882.494 514.208 878.137 511.817 878.137 507.871Z" fill="#595D9E" stroke="#595D9E"/>
<path d="M1093.21 386.106V209.747C1093.21 205.786 1097.6 203.398 1100.93 205.548L1225.13 285.826C1226.56 286.747 1227.42 288.328 1227.42 290.025V469.418C1227.42 473.418 1222.96 475.799 1219.63 473.571L1095.43 390.259C1094.04 389.33 1093.21 387.773 1093.21 386.106Z" fill="#6269AA" stroke="#6269AA"/>
<path d="M1.85938 303.06V124.807C1.85938 120.819 6.29881 118.436 9.6224 120.639L132.901 202.378C134.298 203.304 135.138 204.869 135.138 206.545V384.354C135.138 388.336 130.71 390.72 127.386 388.528L4.1068 307.234C2.70374 306.309 1.85938 304.74 1.85938 303.06Z" fill="#6269AA"/>
<path d="M0 510.224V331.971C0 327.983 4.43943 325.6 7.76302 327.803L131.042 409.542C132.439 410.468 133.279 412.033 133.279 413.709V591.518C133.279 595.5 128.851 597.885 125.526 595.692L2.24743 514.398C0.844366 513.473 0 511.904 0 510.224Z" fill="#6269AA" stroke="#6269AA"/>
<path d="M149.02 590.785V414.579C149.02 412.887 149.875 411.31 151.294 410.387L340.004 287.687C343.331 285.525 347.73 287.912 347.73 291.879V470.591C347.73 472.3 346.857 473.891 345.416 474.809L156.706 595.002C153.377 597.122 149.02 594.731 149.02 590.785Z" fill="#595D9E" stroke="#595D9E"/>
<path d="M364.094 469.028V292.669C364.094 288.708 368.481 286.32 371.808 288.47L496.016 368.748C497.441 369.669 498.302 371.25 498.302 372.947V552.34C498.302 556.34 493.839 558.721 490.517 556.493L366.309 473.18C364.924 472.252 364.094 470.695 364.094 469.028Z" fill="#6269AA" stroke="#6269AA"/>
</g>
</svg>
