<svg width="1414" height="694" viewBox="0 0 1414 694" fill="none" xmlns="http://www.w3.org/2000/svg">
<g opacity="0.37">
<path d="M473.515 253.728V7.46436L646.025 121.845V367.488L473.515 253.728Z" fill="#6165A9" stroke="#6269AA"/>
<path d="M666.403 366.309V122.93L923.606 -44.3042V202.492L666.403 366.309Z" fill="#6165A9" stroke="#595D9E"/>
<path d="M944.779 200.368V-43.2437L1118.49 69.0304V316.886L944.779 200.368Z" fill="#6165A9" stroke="#6269AA"/>
<path d="M944.779 471.418V225.154L1117.29 339.535V585.178L944.779 471.418Z" fill="#6165A9" stroke="#6269AA"/>
<path d="M1137.67 583.999V340.62L1394.87 173.386V420.182L1137.67 583.999Z" fill="#6165A9" stroke="#595D9E"/>
<path d="M3.44989 310.594V64.3296L175.961 178.711V424.353L3.44989 310.594Z" fill="#6165A9"/>
<path d="M1.04529 578.74V332.476L173.556 446.857V692.499L1.04529 578.74Z" fill="#6165A9" stroke="#6269AA"/>
<path d="M193.93 691.321V447.941L451.132 280.707V527.503L193.93 691.321Z" fill="#6165A9" stroke="#595D9E"/>
<path d="M472.314 525.379V281.768L646.028 394.042V641.897L472.314 525.379Z" fill="#6165A9" stroke="#6269AA"/>
</g>
</svg>
