<svg width="1440" height="536" viewBox="0 0 1440 536" fill="none" xmlns="http://www.w3.org/2000/svg">
<path d="M-116.785 405.502V241.184C-116.785 237.196 -112.346 234.813 -109.022 237.017L4.49477 312.283C5.89181 313.209 6.73174 314.774 6.73174 316.45V480.359C6.73174 484.341 2.30354 486.725 -1.02083 484.533L-114.538 409.676C-115.941 408.75 -116.785 407.182 -116.785 405.502Z" fill="white" fill-opacity="0.15"/>
<path d="M1033.77 382.186V217.868C1033.77 213.88 1038.2 211.497 1041.53 213.701L1155.04 288.967C1156.44 289.893 1157.28 291.458 1157.28 293.134V457.043C1157.28 461.025 1152.85 463.409 1149.53 461.217L1036.01 386.36C1034.61 385.434 1033.77 383.866 1033.77 382.186Z" fill="white" fill-opacity="0.15"/>
<path d="M358.182 461.52V297.203C358.182 293.215 362.622 290.832 365.946 293.036L479.462 368.302C480.859 369.228 481.699 370.793 481.699 372.469V536.377C481.699 540.359 477.271 542.744 473.947 540.551L360.43 465.694C359.027 464.769 358.182 463.201 358.182 461.52Z" fill="white" fill-opacity="0.15"/>
<path d="M1033.46 181.008V16.6905C1033.46 12.7027 1037.9 10.3196 1041.23 12.5233L1154.74 87.7892C1156.14 88.7155 1156.98 90.2802 1156.98 91.9564V255.865C1156.98 259.847 1152.55 262.231 1149.23 260.039L1035.71 185.182C1034.31 184.257 1033.46 182.688 1033.46 181.008Z" fill="white" fill-opacity="0.15"/>
<path d="M1313.39 566.366V402.048C1313.39 398.061 1317.83 395.677 1321.15 397.881L1434.67 473.147C1436.06 474.073 1436.9 475.638 1436.9 477.314V641.223C1436.9 645.205 1432.47 647.589 1429.15 645.397L1315.63 570.54C1314.23 569.614 1313.39 568.046 1313.39 566.366Z" fill="white" fill-opacity="0.15"/>
<path d="M220.075 368.441V204.123C220.075 200.135 224.514 197.752 227.838 199.956L341.355 275.222C342.752 276.148 343.592 277.713 343.592 279.389V443.298C343.592 447.28 339.163 449.664 335.839 447.472L222.322 372.615C220.919 371.689 220.075 370.121 220.075 368.441Z" fill="white" fill-opacity="0.15"/>
<path d="M1313.39 174.614V10.2971C1313.39 6.30928 1317.83 3.92617 1321.15 6.12984L1434.67 81.3958C1436.06 82.3221 1436.9 83.8868 1436.9 85.563V249.471C1436.9 253.453 1432.47 255.838 1429.15 253.645L1315.63 178.788C1314.23 177.863 1313.39 176.295 1313.39 174.614Z" fill="white" fill-opacity="0.15"/>
<path d="M695.042 424.46V260.142C695.042 256.154 699.482 253.771 702.805 255.975L816.322 331.241C817.719 332.167 818.559 333.732 818.559 335.408V499.317C818.559 503.299 814.131 505.683 810.806 503.491L697.29 428.634C695.887 427.708 695.042 426.14 695.042 424.46Z" fill="white" fill-opacity="0.15"/>
<path d="M695.042 229.627V65.3094C695.042 61.3216 699.482 58.9385 702.805 61.1422L816.322 136.408C817.719 137.334 818.559 138.899 818.559 140.575V304.484C818.559 308.466 814.131 310.85 810.806 308.658L697.29 233.801C695.887 232.876 695.042 231.307 695.042 229.627Z" fill="white" fill-opacity="0.15"/>
<path d="M1171.87 474.141V309.823C1171.87 305.836 1176.31 303.453 1179.64 305.656L1293.15 380.922C1294.55 381.848 1295.39 383.413 1295.39 385.089V548.998C1295.39 552.98 1290.96 555.364 1287.64 553.172L1174.12 478.315C1172.72 477.39 1171.87 475.821 1171.87 474.141Z" fill="white" fill-opacity="0.15"/>
<path d="M220.075 174.614V10.2971C220.075 6.30928 224.514 3.92617 227.838 6.12984L341.355 81.3958C342.752 82.3221 343.592 83.8868 343.592 85.563V249.471C343.592 253.453 339.163 255.838 335.839 253.645L222.322 178.788C220.919 177.863 220.075 176.295 220.075 174.614Z" fill="white" fill-opacity="0.15"/>
<path d="M1312.46 368.441V204.123C1312.46 200.135 1316.9 197.752 1320.23 199.956L1433.74 275.222C1435.14 276.148 1435.98 277.713 1435.98 279.389V443.298C1435.98 447.28 1431.55 449.664 1428.23 447.472L1314.71 372.615C1313.31 371.689 1312.46 370.121 1312.46 368.441Z" fill="white" fill-opacity="0.15"/>
<path d="M1171.57 271.979V107.662C1171.57 103.674 1176.01 101.291 1179.33 103.494L1292.85 178.76C1294.25 179.687 1295.09 181.251 1295.09 182.928V346.836C1295.09 350.818 1290.66 353.202 1287.34 351.01L1173.82 276.153C1172.42 275.228 1171.57 273.66 1171.57 271.979Z" fill="white" fill-opacity="0.15"/>
<path d="M21.3228 479.693V317.26C21.3228 315.568 22.1786 313.991 23.5973 313.069L197.753 199.832C201.079 197.669 205.478 200.056 205.478 204.024V368.77C205.478 370.479 204.606 372.07 203.164 372.988L29.0088 483.911C25.6803 486.031 21.3228 483.64 21.3228 479.693Z" fill="white" fill-opacity="0.15"/>
<path d="M835.013 493.438V331.005C835.013 329.313 835.869 327.736 837.288 326.814L1011.44 213.577C1014.77 211.414 1019.17 213.801 1019.17 217.769V382.515C1019.17 384.224 1018.3 385.815 1016.85 386.733L842.699 497.656C839.371 499.776 835.013 497.385 835.013 493.438Z" fill="white" fill-opacity="0.15"/>
<path d="M496.29 535.712V373.279C496.29 371.587 497.146 370.01 498.565 369.088L672.72 255.851C676.047 253.688 680.446 256.075 680.446 260.043V424.789C680.446 426.498 679.573 428.089 678.132 429.007L503.976 539.93C500.648 542.05 496.29 539.659 496.29 535.712Z" fill="white" fill-opacity="0.15"/>
<path d="M834.712 292.261V129.828C834.712 128.136 835.568 126.558 836.986 125.636L1011.14 12.3993C1014.47 10.2365 1018.87 12.6236 1018.87 16.5911V181.338C1018.87 183.046 1017.99 184.637 1016.55 185.555L842.398 296.478C839.069 298.598 834.712 296.207 834.712 292.261Z" fill="white" fill-opacity="0.15"/>
<path d="M358.017 265.849V101.531C358.017 97.5437 362.456 95.1605 365.78 97.3642L479.296 172.63C480.693 173.556 481.533 175.121 481.533 176.797V340.706C481.533 344.688 477.105 347.072 473.781 344.88L360.264 270.023C358.861 269.098 358.017 267.529 358.017 265.849Z" fill="white" fill-opacity="0.15"/>
<path d="M21.3228 285.867V123.434C21.3228 121.742 22.1786 120.165 23.5973 119.242L197.753 6.00584C201.079 3.84312 205.478 6.23016 205.478 10.1977V174.944C205.478 176.653 204.606 178.243 203.164 179.161L29.0088 290.084C25.6803 292.204 21.3228 289.814 21.3228 285.867Z" fill="white" fill-opacity="0.15"/>
<path d="M494.426 340.88V178.447C494.426 176.754 495.282 175.177 496.7 174.255L670.856 61.0182C674.182 58.8554 678.582 61.2425 678.582 65.21V229.957C678.582 231.665 677.709 233.256 676.268 234.174L502.112 345.097C498.783 347.217 494.426 344.826 494.426 340.88Z" fill="white" fill-opacity="0.15"/>
</svg>
