<svg width="1440" height="530" viewBox="0 0 1440 530" fill="none" xmlns="http://www.w3.org/2000/svg">
<g opacity="0.8">
<path d="M410.627 357.203V143.174L560.557 242.583V456.073L410.627 357.203Z" fill="#6269AA" stroke="#6269AA"/>
<path d="M578.264 455.043V243.521L801.799 98.1768V312.669L578.264 455.043Z" fill="#595D9E" stroke="#595D9E"/>
<path d="M820.203 310.824V99.0996L971.179 196.677V412.09L820.203 310.824Z" fill="#6269AA" stroke="#6269AA"/>
<path d="M1229.79 260.696V46.667L1379.72 146.076V359.565L1229.79 260.696Z" fill="#6269AA" stroke="#6269AA"/>
<path d="M1397.42 358.554V147.031L1620.96 1.6875V216.179L1397.42 358.554Z" fill="#595D9E" stroke="#595D9E"/>
<path d="M820.203 546.394V332.365L970.133 431.774V645.263L820.203 546.394Z" fill="#6269AA" stroke="#6269AA"/>
<path d="M987.845 644.242V432.72L1211.38 287.376V501.868L987.845 644.242Z" fill="#595D9E" stroke="#595D9E"/>
<path d="M1229.79 500.015V288.291L1380.76 385.868V601.281L1229.79 500.015Z" fill="#6269AA" stroke="#6269AA"/>
<path d="M2.09167 406.621V192.592L152.021 292.001V505.49L2.09167 406.621Z" fill="#6269AA"/>
<path d="M0 639.667V425.638L149.93 525.047V738.536L0 639.667Z" fill="#6269AA" stroke="#6269AA"/>
<path d="M167.637 737.515V525.993L391.173 380.649V595.141L167.637 737.515Z" fill="#595D9E" stroke="#595D9E"/>
<path d="M409.581 593.296V381.572L560.556 479.15V694.562L409.581 593.296Z" fill="#6269AA" stroke="#6269AA"/>
</g>
</svg>
