<svg width="13" height="13" viewBox="0 0 13 13" fill="none" xmlns="http://www.w3.org/2000/svg">
<path d="M6.5 1.3C5.82959 1.3 5.18664 1.53969 4.71259 1.96633C4.23854 2.39298 3.97222 2.97163 3.97222 3.575C3.97222 4.17837 4.23854 4.75702 4.71259 5.18367C5.18664 5.61031 5.82959 5.85 6.5 5.85C7.17041 5.85 7.81336 5.61031 8.28741 5.18367C8.76146 4.75702 9.02778 4.17837 9.02778 3.575C9.02778 2.97163 8.76146 2.39298 8.28741 1.96633C7.81336 1.53969 7.17041 1.3 6.5 1.3ZM2.52778 3.575C2.52778 2.62685 2.94628 1.71754 3.69121 1.04709C4.43615 0.376651 5.4465 0 6.5 0C7.5535 0 8.56385 0.376651 9.30879 1.04709C10.0537 1.71754 10.4722 2.62685 10.4722 3.575C10.4722 4.52315 10.0537 5.43246 9.30879 6.10291C8.56385 6.77335 7.5535 7.15 6.5 7.15C5.4465 7.15 4.43615 6.77335 3.69121 6.10291C2.94628 5.43246 2.52778 4.52315 2.52778 3.575ZM0 11.05C0 10.188 0.380455 9.3614 1.05767 8.7519C1.73488 8.14241 2.65338 7.8 3.61111 7.8H9.38889C10.3466 7.8 11.2651 8.14241 11.9423 8.7519C12.6195 9.3614 13 10.188 13 11.05V13H0V11.05ZM3.61111 9.1C3.03648 9.1 2.48538 9.30545 2.07905 9.67114C1.67272 10.0368 1.44444 10.5328 1.44444 11.05V11.7H11.5556V11.05C11.5556 10.5328 11.3273 10.0368 10.921 9.67114C10.5146 9.30545 9.96352 9.1 9.38889 9.1H3.61111Z" fill="black"/>
</svg>
