<svg width="57" height="56" viewBox="0 0 57 56" fill="none" xmlns="http://www.w3.org/2000/svg">
<path d="M28.6807 8.82434C39.2538 8.82434 47.8633 17.4207 47.8633 28.0083C47.8633 38.5958 39.2538 47.1922 28.6807 47.1922C18.1076 47.1922 9.49813 38.5821 9.49813 28.0083C9.49813 17.4344 18.1076 8.82434 28.6807 8.82434ZM28.6807 46.2309C38.7183 46.2309 46.9021 38.0602 46.9021 28.0083C46.9021 17.9563 38.7183 9.7856 28.6807 9.7856C18.6432 9.7856 10.4593 17.97 10.4593 28.0083C10.4593 38.0465 18.6432 46.2309 28.6807 46.2309Z" fill="#232020"/>
<path d="M35.9144 14.5127C36.0517 14.2793 36.34 14.2106 36.5735 14.3342C36.8069 14.4715 36.8756 14.7599 36.752 14.9934L36.546 15.3367C36.4636 15.4877 36.2988 15.5838 36.1341 15.5838C36.0517 15.5838 35.9693 15.5564 35.9006 15.5152C35.6672 15.3779 35.5985 15.0895 35.7221 14.856L35.9144 14.5127Z" fill="#232020"/>
<path d="M16.1868 20.8003C16.1044 20.9514 15.9396 21.0475 15.7748 21.0475C15.6925 21.0475 15.6101 21.02 15.5414 20.9788L15.1981 20.7728C14.9647 20.6355 14.896 20.3471 15.0196 20.1137C15.1569 19.8802 15.4453 19.8116 15.6787 19.9352L16.022 20.1412C16.2417 20.2785 16.3241 20.5668 16.1868 20.8003Z" fill="#232020"/>
<path d="M20.8089 40.6789C20.9462 40.4454 21.2346 40.3768 21.468 40.5004C21.7014 40.6377 21.7701 40.926 21.6465 41.1595L21.4405 41.5028C21.3581 41.6539 21.1934 41.75 21.0286 41.75C20.9462 41.75 20.8638 41.7225 20.7952 41.6813C20.5617 41.544 20.4931 41.2556 20.6167 41.0222L20.8089 40.6789Z" fill="#232020"/>
<path d="M41.8357 35.0505L42.1789 35.2565C42.4124 35.3938 42.481 35.6822 42.3574 35.9157C42.2751 36.0667 42.1103 36.1628 41.9455 36.1628C41.8631 36.1628 41.7807 36.1354 41.7121 36.0942L41.3688 35.8882C41.1354 35.7509 41.0667 35.4625 41.1903 35.229C41.3139 34.9956 41.6022 34.9132 41.8357 35.0505Z" fill="#232020"/>
<path d="M41.3529 20.1407L41.6961 19.9347C41.9296 19.7974 42.2179 19.8797 42.3552 20.1132C42.4926 20.3466 42.4102 20.635 42.1767 20.7723L41.8335 20.9783C41.7511 21.0195 41.6687 21.047 41.6 21.047C41.4352 21.047 41.2705 20.9646 41.1881 20.7998C41.037 20.5664 41.1194 20.278 41.3529 20.1407Z" fill="#232020"/>
<path d="M20.7831 14.3337C21.0166 14.1964 21.3049 14.2788 21.4422 14.5122L21.6482 14.8556C21.7855 15.089 21.7031 15.3774 21.4697 15.5147C21.3873 15.5559 21.3049 15.5834 21.2363 15.5834C21.0715 15.5834 20.9067 15.501 20.8243 15.3362L20.6184 14.9929C20.4811 14.7594 20.5497 14.471 20.7831 14.3337Z" fill="#232020"/>
<path d="M15.1849 35.2499L15.5282 35.0439C15.7616 34.9066 16.05 34.989 16.1873 35.2224C16.3246 35.4559 16.2422 35.7443 16.0088 35.8816L15.6655 36.0876C15.5831 36.1288 15.5007 36.1562 15.4321 36.1562C15.2673 36.1562 15.1025 36.0738 15.0201 35.9091C14.8828 35.6756 14.9515 35.3872 15.1849 35.2499Z" fill="#232020"/>
<path d="M35.8886 40.4999C36.122 40.3625 36.4104 40.4449 36.5477 40.6784L36.7537 41.0217C36.891 41.2551 36.8086 41.5435 36.5752 41.6808C36.4928 41.722 36.4104 41.7495 36.3417 41.7495C36.177 41.7495 36.0122 41.6671 35.9298 41.5023L35.7238 41.159C35.5865 40.9256 35.6689 40.6372 35.8886 40.4999Z" fill="#232020"/>
<path d="M28.6796 14.5208C28.4187 14.5208 28.199 14.3011 28.199 14.0402V11.6508C28.199 11.3899 28.4187 11.1702 28.6796 11.1702C28.9405 11.1702 29.1602 11.3899 29.1602 11.6508V14.0402C29.1602 14.3148 28.9405 14.5208 28.6796 14.5208Z" fill="#232020"/>
<path d="M15.1992 28.0054C15.1992 28.2663 14.9795 28.486 14.7186 28.486H12.3294C12.0685 28.486 11.8488 28.2663 11.8488 28.0054C11.8488 27.7445 12.0685 27.5248 12.3294 27.5248H14.7186C14.9932 27.5248 15.1992 27.7445 15.1992 28.0054Z" fill="#232020"/>
<path d="M28.6796 41.4941C28.9405 41.4941 29.1602 41.7139 29.1602 41.9748V44.3642C29.1602 44.6251 28.9405 44.8448 28.6796 44.8448C28.4187 44.8448 28.199 44.6251 28.199 44.3642V41.9748C28.199 41.7001 28.4187 41.4941 28.6796 41.4941Z" fill="#232020"/>
<path d="M42.1613 28.0054C42.1613 27.7445 42.381 27.5248 42.6419 27.5248H45.0311C45.292 27.5248 45.5117 27.7445 45.5117 28.0054C45.5117 28.2663 45.292 28.486 45.0311 28.486H42.6419C42.3673 28.486 42.1613 28.2663 42.1613 28.0054Z" fill="#232020"/>
<path d="M23.9404 18.9535C24.1738 18.83 24.4622 18.9261 24.5858 19.1595L29.1033 27.7834V27.7971C29.1171 27.8108 29.1171 27.8246 29.1171 27.852C29.1171 27.8658 29.1308 27.8795 29.1308 27.8932C29.1308 27.907 29.1308 27.9207 29.1445 27.9344C29.1445 27.9482 29.1445 27.9619 29.1445 27.9893V28.0031C29.1445 28.0168 29.1445 28.0168 29.1445 28.0305C29.1445 28.0443 29.1445 28.058 29.1445 28.0855C29.1445 28.0992 29.1445 28.1129 29.1308 28.1267C29.1308 28.1404 29.1171 28.1541 29.1171 28.1679C29.1171 28.1816 29.1033 28.1953 29.1033 28.2091C29.1033 28.2228 29.0896 28.2365 29.0759 28.2503C29.0621 28.264 29.0621 28.2777 29.0484 28.2915C29.0347 28.3052 29.0347 28.3189 29.021 28.3327C29.0072 28.3464 28.9935 28.3601 28.9935 28.3601C28.9798 28.3739 28.966 28.3739 28.9523 28.3876C28.9386 28.4013 28.9248 28.4013 28.9111 28.415C28.8974 28.415 28.8974 28.4288 28.8974 28.4288H28.8836C28.8562 28.4425 28.8287 28.4425 28.815 28.4562C28.8013 28.4562 28.8013 28.4562 28.7875 28.47C28.7601 28.4837 28.7189 28.4837 28.6914 28.4837H24.4759C24.215 28.4837 23.9953 28.264 23.9953 28.0031C23.9953 27.7422 24.215 27.5225 24.4759 27.5225H27.895L23.7481 19.599C23.6108 19.3655 23.707 19.0771 23.9404 18.9535Z" fill="#232020"/>
<path d="M28.6797 5.8855C40.8731 5.8855 50.8008 15.8139 50.8008 28.0081C50.8008 40.2023 40.8868 50.1307 28.6797 50.1307C16.4726 50.1307 6.55865 40.2161 6.55865 28.0081C6.55865 15.8002 16.4864 5.8855 28.6797 5.8855ZM28.6797 48.2082C39.8158 48.2082 48.8784 39.1449 48.8784 28.0081C48.8784 16.8713 39.8158 7.80801 28.6797 7.80801C17.5437 7.80801 8.48103 16.8713 8.48103 28.0081C8.48103 39.1449 17.5437 48.2082 28.6797 48.2082Z" fill="#232020"/>
<path d="M3.44169 28.0078C3.44169 27.6782 3.44168 27.3487 3.45542 27.0191L0.667973 25.385L0.736629 24.767C0.901402 23.2702 1.20349 21.7734 1.61543 20.3452L1.79394 19.741L4.99332 19.2879C5.22675 18.6699 5.47392 18.052 5.74854 17.4477L3.81243 14.8661L4.11452 14.3168C4.85601 12.9848 5.69361 11.7351 6.62734 10.5679L7.01182 10.0735L10.1425 10.8837C10.5957 10.3894 11.0625 9.92248 11.5569 9.46931L10.7467 6.33837L11.241 5.95387C12.4082 5.03381 13.6577 4.18241 14.9897 3.44087L15.5389 3.13876L18.1067 5.08873C18.7108 4.81409 19.3288 4.55318 19.9467 4.33346L20.3998 1.13385L21.004 0.955336C22.432 0.543369 23.9287 0.254992 25.4254 0.0764736L26.0433 0.0078125L27.6774 2.79545C28.3365 2.76799 29.0093 2.76799 29.6684 2.79545L31.3024 0.0078125L31.9203 0.0764736C33.417 0.24126 34.9137 0.543369 36.3418 0.955336L36.946 1.13385L37.3991 4.33346C38.017 4.56691 38.6349 4.81409 39.2391 5.08873L41.8343 3.15249L42.3835 3.4546C43.688 4.18241 44.9513 5.03381 46.1322 5.9676L46.6265 6.3521L45.8164 9.48305C46.3107 9.93621 46.7776 10.4031 47.217 10.8837L50.3339 10.0735L50.7184 10.5679C51.6522 11.7351 52.4898 12.9985 53.2312 14.3168L53.5333 14.8661L51.5972 17.434C51.8719 18.0382 52.1327 18.6562 52.3662 19.2879L55.5656 19.741L55.7303 20.3452C56.1423 21.7871 56.4306 23.2702 56.5954 24.767L56.6641 25.385L53.8903 27.0191C53.9041 27.3487 53.9041 27.6782 53.9041 28.0215C53.9041 28.3511 53.9041 28.6807 53.8903 29.0103L56.6641 30.6444L56.5954 31.2624C56.4306 32.7592 56.1285 34.2422 55.7303 35.6841L55.5656 36.2883L52.3662 36.7415C52.1327 37.3732 51.8719 37.9911 51.5972 38.5816L53.5333 41.1633L53.2312 41.7126C52.5035 43.0171 51.6659 44.2805 50.7184 45.4615L50.3339 45.9558L47.217 45.1456C46.7638 45.64 46.297 46.1069 45.8026 46.56L46.6128 49.6773L46.1185 50.0618C44.9376 51.0093 43.6743 51.8469 42.3698 52.5748L41.8206 52.8769L39.2391 50.9406C38.6349 51.2153 38.017 51.4762 37.3991 51.7096L36.946 54.9092L36.3418 55.074C34.9 55.486 33.417 55.7744 31.9203 55.9392L31.3024 56.0078L29.6684 53.2339C29.0093 53.2614 28.3365 53.2614 27.6774 53.2339L26.0433 56.0078L25.4254 55.9392C23.9287 55.7744 22.4458 55.4723 21.004 55.074L20.3998 54.9092L19.9467 51.7096C19.315 51.4762 18.6971 51.2153 18.0929 50.9406L15.5115 52.8769L14.9622 52.5748C13.644 51.8332 12.3807 50.9956 11.2136 50.0618L10.7193 49.6773L11.5294 46.56C11.0351 46.1069 10.5682 45.64 10.1288 45.1594L6.99809 45.9696L6.61361 45.4752C5.67988 44.2942 4.84227 43.0309 4.10079 41.7263L3.7987 41.177L5.76227 38.5816C5.48764 37.9774 5.22675 37.3595 5.00705 36.7415L1.80766 36.2883L1.62916 35.6841C1.21722 34.256 0.928867 32.7592 0.750359 31.2624L0.681702 30.6444L3.46915 29.0103C3.45542 28.6807 3.44169 28.3374 3.44169 28.0078ZM2.74139 31.6606C2.8787 32.6356 3.07094 33.6106 3.3181 34.5581L6.4351 34.9975L6.62734 35.5605C6.94316 36.4943 7.32764 37.4007 7.7533 38.2795L8.0142 38.8151L6.13301 41.3281C6.62734 42.1795 7.19032 43.0034 7.78077 43.7861L10.8291 43.0034L11.2136 43.4428C11.8589 44.1706 12.5455 44.871 13.287 45.5164L13.7401 45.9009L12.9575 48.9495C13.7401 49.5399 14.564 50.0892 15.4153 50.5973L17.9282 48.7023L18.4637 48.9632C19.3288 49.3889 20.2488 49.7734 21.1825 50.0892L21.7455 50.2815L22.1849 53.385C23.1323 53.6321 24.1072 53.8244 25.0822 53.9617L26.675 51.2565L27.2654 51.2977C28.2266 51.3663 29.229 51.3663 30.1902 51.2977L30.7806 51.2565L32.3735 53.9617C33.3484 53.8244 34.3233 53.6321 35.2708 53.385L35.7102 50.2815L36.2731 50.0892C37.2069 49.7734 38.1269 49.3889 38.9919 48.9632L39.5274 48.7023L42.0403 50.5973C42.8779 50.103 43.7017 49.5537 44.4982 48.9495L43.7155 45.9009L44.1549 45.5164C44.8826 44.871 45.5829 44.1844 46.2283 43.4428L46.6128 43.0034L49.6611 43.7861C50.2653 42.9897 50.8145 42.1795 51.3089 41.3281L49.414 38.8151L49.6748 38.2795C50.1005 37.4144 50.485 36.5081 50.8008 35.5605L50.9931 34.9975L54.0963 34.5581C54.3435 33.6106 54.5357 32.6356 54.673 31.6606L51.913 30.0676L51.9542 29.4772C51.9817 28.9965 51.9954 28.5022 51.9954 28.0078C51.9954 27.5135 51.9817 27.0191 51.9542 26.5385L51.913 25.948L54.6181 24.355C54.4808 23.3801 54.2886 22.4051 54.0414 21.4575L50.9381 21.0181L50.7459 20.4551C50.4301 19.5213 50.0456 18.6012 49.6199 17.7361L49.359 17.2006L51.2539 14.6876C50.7459 13.8362 50.1966 13.0122 49.6062 12.2295L46.5579 13.0122L46.1734 12.5591C45.528 11.8313 44.8414 11.1309 44.1 10.4855L43.6606 10.101L44.4432 7.05244C43.6606 6.46196 42.8367 5.91267 41.9853 5.40458L39.4725 7.28589L38.937 7.02498C38.0582 6.59928 37.1519 6.21478 36.2182 5.89894L35.6552 5.70668L35.2158 2.58947C34.2684 2.34229 33.2935 2.15004 32.3185 2.01272L30.7394 4.78663L30.149 4.74543C29.1878 4.67677 28.1854 4.67677 27.2242 4.74543L26.6338 4.78663L25.041 2.08138C24.066 2.2187 23.0911 2.41095 22.1437 2.65813L21.7043 5.77535L21.1413 5.9676C20.2076 6.28344 19.3013 6.66794 18.4225 7.09364L17.887 7.35455L15.3742 5.47324C14.5228 5.98133 13.6989 6.53062 12.9163 7.1211L13.6989 10.1697L13.2595 10.5542C12.5318 11.1996 11.8315 11.8862 11.1861 12.6277L10.8016 13.0672L7.7533 12.2844C7.16286 13.0672 6.61361 13.8911 6.10555 14.7425L7.98673 17.2555L7.72584 17.791C7.30017 18.6699 6.9157 19.5762 6.59988 20.51L6.40764 21.073L3.29064 21.5125C3.04348 22.46 2.85124 23.435 2.71393 24.41L5.41899 26.0029L5.37779 26.5934C5.35033 27.074 5.3366 27.5684 5.3366 28.0627C5.3366 28.5571 5.35033 29.0515 5.37779 29.5321L5.41899 30.1226L2.74139 31.6606Z" fill="#232020"/>
</svg>
